# xmcd CD database file
#
# Track frame offsets:
#	150
#	26700
#	44053
#
# Disc length: 748 seconds
#
# Revision: 0
# Processed by: cddbd v1.5.1PL0 Copyright (c) Steve Scherf et al.
# Submitted via: CDex 1.51
#
DISCID=2402ea03
DTITLE=THE DIVIANTS - LIVE
DYEAR=2004
DGENRE=Psychedelic
TTITLE0=TASTE THE BLUE
TTITLE1=YOU'VE GOT TO HOLD ON
TTITLE2=LET'S LOOT THE SUPERMARKET
EXTD=YEAR: 2004
EXTT0=
EXTT1=
EXTT2=
PLAYORDER=
